<svg version="1.2" baseProfile="tiny-ps" xmlns="http://www.w3.org/2000/svg" viewBox="0 0 24 20" width="24" height="20">
	<title>clients</title>
	<style>
		tspan { white-space:pre }
		.shp0 { fill: #2aacc8 } 
	</style>
	<g id="clients">
		<path id="clients" class="shp0" d="M17.82 14.01L16.27 14.01L13.12 11.15C15.01 10.53 16.13 9.57 16.66 8.99L16.66 8.37C16.01 8.49 14.53 7.98 15.15 7.68C15.46 7.52 15.64 7.23 15.75 6.95C15.69 6.78 15.65 6.59 15.64 6.4L15.63 6.13C15.59 6.14 15.55 6.15 15.51 6.15C15.3 6.15 15.12 5.98 15.12 5.76L15.12 4.97C15.12 4.76 15.3 4.58 15.51 4.58C15.52 4.58 15.53 4.59 15.54 4.59L15.51 4.08C15.44 2.68 16.47 1.47 17.83 1.47C19.18 1.47 20.21 2.68 20.14 4.08L20.11 4.59C20.12 4.59 20.13 4.58 20.14 4.58C20.35 4.58 20.53 4.76 20.53 4.97L20.53 5.76C20.53 5.98 20.35 6.15 20.14 6.15C20.1 6.15 20.06 6.14 20.02 6.13L20.01 6.4C19.99 6.62 19.94 6.82 19.87 7.02C19.98 7.28 20.15 7.53 20.44 7.68C21.04 7.97 19.67 8.46 18.99 8.38L18.99 8.99C19.55 9.6 20.75 10.64 22.84 11.26C22.84 11.26 24 12.17 24 13.09L24 14.01L17.82 14.01ZM13.95 7.46C13.89 7.46 13.82 7.44 13.76 7.42L13.74 7.85C13.67 9.03 13.01 10.04 12.06 10.62L12.06 11.99C12.98 12.96 14.96 14.61 18.4 15.6C18.4 15.6 20.3 17.07 20.3 18.53L20.3 19.99L10.15 19.99L0 19.99L0 18.53C0 17.07 1.9 15.6 1.9 15.6C5.34 14.61 7.32 12.96 8.24 11.99L8.24 10.62C7.29 10.04 6.62 9.03 6.56 7.85L6.53 7.42C6.47 7.44 6.41 7.46 6.34 7.46C5.99 7.46 5.71 7.18 5.71 6.83L5.71 5.58C5.71 5.23 5.99 4.95 6.34 4.95C6.36 4.95 6.38 4.96 6.4 4.96L6.35 4.15C6.22 1.92 7.92 -0.01 10.15 -0.01C12.38 -0.01 14.08 1.92 13.95 4.15L13.9 4.96C13.92 4.96 13.94 4.95 13.95 4.95C14.31 4.95 14.59 5.23 14.59 5.58L14.59 6.83C14.59 7.18 14.31 7.46 13.95 7.46Z" />
	</g>
</svg>